<mxfile host="65bd71144e">
    <diagram id="UT293SUq6jOhuTCsXSMy" name="ページ1">
        <mxGraphModel dx="647" dy="618" grid="1" gridSize="10" guides="1" tooltips="1" connect="1" arrows="0" fold="1" page="1" pageScale="1" pageWidth="827" pageHeight="1169" math="0" shadow="0">
            <root>
                <mxCell id="0"/>
                <mxCell id="1" parent="0"/>
                <mxCell id="53" value="App.vue" style="swimlane;whiteSpace=wrap;html=1;" vertex="1" parent="1">
                    <mxGeometry x="70" y="80" width="210" height="150" as="geometry"/>
                </mxCell>
                <mxCell id="61" value="" style="rounded=0;whiteSpace=wrap;html=1;" vertex="1" parent="53">
                    <mxGeometry x="0.5" y="77" width="210" height="80" as="geometry"/>
                </mxCell>
                <mxCell id="54" value="dispatch(&quot;getRegisteredProducts&quot;)" style="text;html=1;align=center;verticalAlign=middle;resizable=0;points=[];autosize=1;strokeColor=none;fillColor=none;" vertex="1" parent="53">
                    <mxGeometry x="0.5" y="87" width="210" height="30" as="geometry"/>
                </mxCell>
                <mxCell id="62" value="commit(&quot;getRegisterDatafromDB&quot;)" style="text;html=1;align=center;verticalAlign=middle;resizable=0;points=[];autosize=1;strokeColor=none;fillColor=none;" vertex="1" parent="53">
                    <mxGeometry x="-2" y="117" width="210" height="30" as="geometry"/>
                </mxCell>
                <mxCell id="56" value="ProductList.vue" style="swimlane;whiteSpace=wrap;html=1;" vertex="1" parent="1">
                    <mxGeometry x="220" y="340" width="200" height="200" as="geometry"/>
                </mxCell>
                <mxCell id="65" value="" style="rounded=0;whiteSpace=wrap;html=1;" vertex="1" parent="56">
                    <mxGeometry y="110" width="200" height="90" as="geometry"/>
                </mxCell>
                <mxCell id="57" value="store.state.productList" style="text;html=1;align=center;verticalAlign=middle;resizable=0;points=[];autosize=1;strokeColor=none;fillColor=none;" vertex="1" parent="56">
                    <mxGeometry x="10" y="40" width="140" height="30" as="geometry"/>
                </mxCell>
                <mxCell id="58" value="store.state.rktProductList" style="text;html=1;align=center;verticalAlign=middle;resizable=0;points=[];autosize=1;strokeColor=none;fillColor=none;" vertex="1" parent="56">
                    <mxGeometry x="9" y="70" width="160" height="30" as="geometry"/>
                </mxCell>
                <mxCell id="59" value="goToUrl:void&lt;br&gt;" style="text;html=1;align=center;verticalAlign=middle;resizable=0;points=[];autosize=1;strokeColor=none;fillColor=none;" vertex="1" parent="56">
                    <mxGeometry x="10" y="110" width="90" height="30" as="geometry"/>
                </mxCell>
                <mxCell id="63" value="dispatch(&quot;getProductList&quot;)" style="text;html=1;align=center;verticalAlign=middle;resizable=0;points=[];autosize=1;strokeColor=none;fillColor=none;" vertex="1" parent="56">
                    <mxGeometry x="10" y="130" width="160" height="30" as="geometry"/>
                </mxCell>
                <mxCell id="64" value="dispatch(&quot;getRktProductList&quot;)" style="text;html=1;align=center;verticalAlign=middle;resizable=0;points=[];autosize=1;strokeColor=none;fillColor=none;" vertex="1" parent="56">
                    <mxGeometry x="9" y="150" width="180" height="30" as="geometry"/>
                </mxCell>
                <mxCell id="66" value="commit(&quot;sortGenre&quot;)" style="text;html=1;align=center;verticalAlign=middle;resizable=0;points=[];autosize=1;strokeColor=none;fillColor=none;" vertex="1" parent="56">
                    <mxGeometry x="10" y="170" width="130" height="30" as="geometry"/>
                </mxCell>
            </root>
        </mxGraphModel>
    </diagram>
</mxfile>